<?xml version="1.0" standalone="no"?>
<!DOCTYPE svg PUBLIC "-//W3C//DTD SVG 20010904//EN"
 "http://www.w3.org/TR/2001/REC-SVG-20010904/DTD/svg10.dtd">
<svg version="1.0" xmlns="http://www.w3.org/2000/svg"
 width="512.000000pt" height="512.000000pt" viewBox="0 0 512.000000 512.000000"
 preserveAspectRatio="xMidYMid meet">
<g transform="translate(0.000000,512.000000) scale(0.050000,-0.050000)"
fill="#000000" stroke="none">
<path d="M5409 8577 c-1232 -1558 -1121 -1431 -1226 -1408 -37 8 -226 189
-593 567 -297 305 -544 556 -550 559 -6 3 -431 -681 -944 -1520 l-933 -1525
1980 -5 c1089 -3 2865 -3 3946 0 l1967 5 -324 470 c-1542 2240 -2561 3714
-2582 3737 -20 21 -156 -140 -741 -880z"/>
<path d="M700 4811 c0 -1289 923 -2810 2149 -3542 220 -131 215 -133 261 71
94 414 39 702 -238 1242 -532 1038 -439 1550 353 1941 347 172 435 244 435
358 0 38 -25 39 -1480 39 l-1480 0 0 -109z"/>
<path d="M3993 4907 c-7 -8 -13 -41 -13 -75 -1 -201 -150 -353 -542 -554 -695
-355 -739 -607 -277 -1558 320 -659 376 -1019 239 -1538 -52 -195 -69 -172
200 -271 546 -200 1395 -322 1793 -258 l104 17 -72 120 c-320 537 -361 1091
-109 1482 112 173 265 298 609 497 693 401 752 523 584 1211 -78 323 -102 641
-64 855 l15 85 -1226 0 c-675 0 -1233 -6 -1241 -13z"/>
<path d="M6776 4865 c-50 -119 -31 -513 39 -788 136 -542 123 -808 -53 -1065
-119 -172 -242 -264 -768 -573 -623 -366 -692 -877 -216 -1612 l80 -122 182
37 c1883 386 3372 2084 3494 3983 l12 195 -1373 0 -1374 0 -23 -55z"/>
</g>
</svg>
