<svg width="374" height="12060" viewBox="0 0 374 12060" fill="none" xmlns="http://www.w3.org/2000/svg">
<path d="M-137 4.5C-136.721 4.5 -81.0581 8.25706 33.7323 79.4558C93.5128 116.535 154.345 277.91 193.368 374.953C278.715 587.199 316.597 963.58 346.814 1292.9C354.293 1374.41 358.07 1469.84 363.103 2049.99C368.136 2630.15 372.74 3728.5 363.778 4611.55C354.502 5525.58 330.882 6253.92 309.946 6808.42C289.011 7362.92 271.476 7721.49 246.466 8139.56C221.455 8557.62 189.5 9024.3 161.508 9399.51C133.515 9774.71 110.454 10044.3 86.1548 10393C61.8561 10741.8 37.0191 11161.5 19.493 11425.2C1.96698 11689 -7.49553 11783.9 -16.4259 11857C-25.3563 11930.1 -33.4678 11978.5 -49.6577 12055.5" stroke="white" stroke-width="9" stroke-linecap="round"/>
</svg>
