<svg width="616" height="11473" viewBox="0 0 616 11473" fill="none" xmlns="http://www.w3.org/2000/svg">
<path d="M652.501 28.5621C629.658 28.5621 589.59 -25.5778 470.926 28.5623C393.091 64.0741 346.625 13.8081 287.187 639.783C255.629 972.145 287.187 2415.69 287.187 2827.19C287.187 3214.57 287.187 3258.12 287.187 3574.78C287.187 4155.51 296.097 4539.59 287.187 5244.39C279.668 5839.23 240.937 6900.21 240.937 7511.21C240.937 8192.21 225.914 8327.57 206.496 8703.51C187.078 9079.45 155.046 9651.74 135.723 10025.3C96.6599 10833.6 67.0008 11156.9 43.3795 11312.6C32.6097 11378.4 24.3109 11417.4 4.50122 11468.5" stroke="white" stroke-width="9" stroke-linecap="round"/>
</svg>
