<svg width="1728" height="336" viewBox="0 0 1728 336" fill="none" xmlns="http://www.w3.org/2000/svg">
<path d="M-20.9432 4.5C-20.2673 4.5 32.1593 4.55069 115.818 5.43436C156.975 5.86908 220.474 24.4305 318.428 54.1339C397.321 78.0569 474.868 119.172 551.924 156.947C635.607 197.971 700.848 271.564 755.393 307.427C803.275 338.91 845.506 330.053 911.953 328.682C964.754 327.593 1012.1 288.159 1051.76 267.465C1086.42 249.377 1113.39 222.742 1198.91 172.541C1266.11 133.091 1374.07 102.536 1477.06 71.452C1516.19 60.206 1528.64 58.153 1579.4 56.5926C1630.16 55.0323 1718.84 54.0269 1810.22 52.991" stroke="white" stroke-width="9" stroke-linecap="round"/>
</svg>
